# xmcd
#
# Track frame offsets:
#	150
#	19351
#	39291
#	58988
#	73143
#	90020
#	104475
#	118085
#	135471
#	150103
#	174015
#	188251
#	212600
#	232571
#	247758
#
# Disc length: 3533 seconds
#
# Revision: 1
# Processed by: cddbd v1.5.2PL0 Copyright (c) Steve Scherf et al.
# Submitted via: audiograbber 1.83.01
#
DISCID=a80dcb0f
DTITLE=Red Eagle Blues Band - Flying High
DYEAR=2000
DGENRE=Blues
TTITLE0=All Night Shuffle
TTITLE1=Flying High
TTITLE2=Sunset Blues
TTITLE3=Moving Out
TTITLE4=She Caught The Katy
TTITLE5=Same Old Song
TTITLE6=Mercedes Benz
TTITLE7=Tell Me Where You've Been
TTITLE8=Save Your Breath
TTITLE9=You're The One
TTITLE10=Don't Hurt My Baby
TTITLE11=What's Good For You ...
TTITLE12=Some Other Time ...
TTITLE13=Save Me
TTITLE14=I Want You
EXTD=
EXTT0=
EXTT1=
EXTT2=
EXTT3=
EXTT4=
EXTT5=
EXTT6=
EXTT7=
EXTT8=
EXTT9=
EXTT10=
EXTT11=
EXTT12=
EXTT13=
EXTT14=
PLAYORDER=
